<?xml version="1.0" encoding="UTF-8" standalone="no"?>
<!-- Created with Inkscape (http://www.inkscape.org/) -->

<svg
   width="100mm"
   height="100mm"
   viewBox="0 0 100 100"
   version="1.1"
   id="svg1"
   inkscape:version="1.4 (86a8ad7, 2024-10-11)"
   sodipodi:docname="logo.svg"
   xmlns:inkscape="http://www.inkscape.org/namespaces/inkscape"
   xmlns:sodipodi="http://sodipodi.sourceforge.net/DTD/sodipodi-0.dtd"
   xmlns:xlink="http://www.w3.org/1999/xlink"
   xmlns="http://www.w3.org/2000/svg"
   xmlns:svg="http://www.w3.org/2000/svg">
  <sodipodi:namedview
     id="namedview1"
     pagecolor="#ffffff"
     bordercolor="#000000"
     borderopacity="0.25"
     inkscape:showpageshadow="2"
     inkscape:pageopacity="0.0"
     inkscape:pagecheckerboard="0"
     inkscape:deskcolor="#d1d1d1"
     inkscape:document-units="mm"
     inkscape:zoom="1.824"
     inkscape:cx="151.86404"
     inkscape:cy="176.26096"
     inkscape:window-width="1920"
     inkscape:window-height="1057"
     inkscape:window-x="-8"
     inkscape:window-y="-8"
     inkscape:window-maximized="1"
     inkscape:current-layer="g31"
     showguides="true"
     showgrid="true">
    <inkscape:grid
       id="grid31"
       units="mm"
       originx="50"
       originy="49.999996"
       spacingx="0.99999998"
       spacingy="1"
       empcolor="#0099e5"
       empopacity="0.30196078"
       color="#0099e5"
       opacity="0.14901961"
       empspacing="5"
       enabled="true"
       visible="false" />
  </sodipodi:namedview>
  <defs
     id="defs1">
    <linearGradient
       id="linearGradient1"
       inkscape:collect="always">
      <stop
         style="stop-color:#e067f7;stop-opacity:1;"
         offset="0"
         id="stop1" />
      <stop
         style="stop-color:#a434df;stop-opacity:1;"
         offset="1"
         id="stop2" />
    </linearGradient>
    <linearGradient
       id="linearGradient51"
       inkscape:collect="always">
      <stop
         style="stop-color:#e067f7;stop-opacity:1;"
         offset="0"
         id="stop51" />
      <stop
         style="stop-color:#a434df;stop-opacity:1;"
         offset="1"
         id="stop52" />
    </linearGradient>
    <linearGradient
       inkscape:collect="always"
       xlink:href="#linearGradient51"
       id="linearGradient52"
       x1="14.531565"
       y1="14.531563"
       x2="85.335724"
       y2="85.335724"
       gradientUnits="userSpaceOnUse" />
    <linearGradient
       inkscape:collect="always"
       xlink:href="#linearGradient1"
       id="linearGradient2"
       x1="57.931564"
       y1="39.889462"
       x2="128.73573"
       y2="110.69363"
       gradientUnits="userSpaceOnUse" />
  </defs>
  <g
     inkscape:label="Слой 1"
     inkscape:groupmode="layer"
     id="layer1">
    <g
       id="g39"
       style="display:inline;fill:url(#linearGradient52);fill-opacity:0">
      <path
         id="path34"
         style="display:inline;mix-blend-mode:normal;fill:url(#linearGradient2);fill-opacity:1;stroke:#000000;stroke-width:0.295921;stroke-opacity:0"
         d="m 93.333904,25.373398 a 49.918186,49.918182 0 0 0 -49.9184,49.9184 49.918186,49.918182 0 0 0 49.9184,49.917882 49.918186,49.918182 0 0 0 49.917886,-49.917882 49.918186,49.918182 0 0 0 -49.917886,-49.9184 z m 0.112655,19.179708 A 30.851532,30.851532 0 0 1 124.29842,75.404453 30.851532,30.851532 0 0 1 93.446559,106.25632 30.851532,30.851532 0 0 1 62.595212,75.404453 30.851532,30.851532 0 0 1 93.446559,44.553106 Z"
         transform="translate(-43.400001,-25.357895)" />
    </g>
    <g
       id="g31"
       transform="translate(-43.400002,-25.357895)"
       style="display:inline">
      <path
         id="path43"
         style="display:inline;fill:#000000;fill-opacity:0;stroke:#000000;stroke-width:0.263885;stroke-opacity:1"
         d="m 43.531777,25.48967 18.966284,18.966801 h 61.803459 v 61.802949 l 18.96629,18.96628 V 25.48967 Z"
         inkscape:label="R" />
      <path
         id="path47"
         style="display:inline;fill:#000000;fill-opacity:0;stroke:#000000;stroke-width:0.263885;stroke-opacity:1"
         inkscape:label="e2"
         d="M 62.498061,44.456471 124.30152,106.25942 V 44.456471 Z m 30.951082,11.770858 a 19.18,19.18 0 0 1 19.180227,19.179707 19.18,19.18 0 0 1 -0.94051,5.807398 L 87.549245,57.204013 a 19.18,19.18 0 0 1 5.899898,-0.976684 z" />
      <path
         id="path46"
         style="display:inline;fill:#000000;fill-opacity:0;stroke:#000000;stroke-width:0.263885;stroke-opacity:1"
         inkscape:label="e1"
         d="M 62.498061,44.456471 V 106.25942 H 124.30152 Z M 75.235785,69.495769 99.265326,93.656052 A 19.18,19.18 0 0 1 93.449143,94.587261 19.18,19.18 0 0 1 74.268919,75.407036 19.18,19.18 0 0 1 75.235785,69.495769 Z" />
      <path
         id="path42"
         style="display:inline;fill:#000000;fill-opacity:0;stroke:#000000;stroke-width:0.263885;stroke-opacity:1"
         d="M 43.438483,25.582967 V 125.319 H 143.17452 L 124.20823,106.35272 H 62.404767 V 44.549768 Z"
         inkscape:label="L" />
    </g>
  </g>
</svg>
