<svg 
 xmlns="http://www.w3.org/2000/svg"
 xmlns:xlink="http://www.w3.org/1999/xlink"
 width="773.5px" height="773.5px">
<path fill-rule="evenodd"  stroke="rgb(0, 0, 0)" stroke-width="1px" stroke-linecap="butt" stroke-linejoin="miter" fill="rgb(255, 254, 255)"
 d="M576.685,721.308 L505.546,598.115 C579.189,556.594 628.870,478.060 628.870,388.003 C628.870,387.500 628.854,387.002 628.851,386.500 L771.500,386.500 C771.500,386.501 771.500,386.502 771.500,386.503 C771.500,529.958 693.032,655.074 576.685,721.308 ZM502.118,175.998 L574.579,50.521 C691.804,116.289 771.120,241.606 771.487,385.500 L628.839,385.500 C627.912,295.108 576.944,216.620 502.118,175.998 ZM501.242,175.516 C466.822,157.012 427.401,146.501 385.503,146.501 C341.047,146.501 299.385,158.342 263.522,179.001 L191.594,54.444 C248.765,20.812 315.372,1.500 386.500,1.500 C454.458,1.500 518.287,19.132 573.706,50.034 L501.242,175.516 ZM142.167,385.500 L1.513,385.500 C1.872,244.775 77.743,121.818 190.733,54.953 L262.658,179.505 C191.248,221.032 143.067,297.641 142.167,385.500 ZM142.135,388.003 C142.135,475.517 189.044,552.159 259.273,594.520 L188.646,716.821 C76.534,649.522 1.500,526.782 1.500,386.503 C1.500,386.502 1.500,386.501 1.500,386.500 L142.154,386.500 C142.151,387.002 142.135,387.500 142.135,388.003 ZM260.135,595.027 C296.752,616.909 339.643,629.504 385.503,629.504 C428.800,629.504 469.447,618.270 504.671,598.601 L575.812,721.796 C519.907,753.430 455.318,771.505 386.500,771.505 C314.506,771.505 247.141,751.723 189.507,717.330 L260.135,595.027 Z"/>
</svg>